<?xml version="1.0" encoding="utf-8"?>

<!-- License Agreement at http://iconmonstr.com/license/ -->

<!DOCTYPE svg PUBLIC "-//W3C//DTD SVG 1.1//EN" "http://www.w3.org/Graphics/SVG/1.1/DTD/svg11.dtd">
<svg version="1.1" xmlns="http://www.w3.org/2000/svg" xmlns:xlink="http://www.w3.org/1999/xlink" x="0px" y="0px"
	 width="512px" height="512px" viewBox="0 0 512 512" enable-background="new 0 0 512 512" xml:space="preserve">
<path id="qr-code-7-icon" d="M462,418.173l-60.757-60.756c9.938-15.662,15.703-34.223,15.703-54.109
	c0-55.848-45.436-101.281-101.285-101.281c-55.847,0-101.281,45.434-101.281,101.281s45.435,101.285,101.281,101.285
	c18.898,0,36.601-5.209,51.757-14.258l61.211,61.213L462,418.173z M252.138,303.308c0-35.029,28.498-63.525,63.523-63.525
	c35.03,0,63.529,28.496,63.529,63.525s-28.499,63.523-63.529,63.523C280.636,366.831,252.138,338.337,252.138,303.308z M50,397.128
	h111.889V284.901H50V397.128z M65.84,300.741h80.208v80.209H65.84V300.741z M82.018,316.917h47.854v47.855H82.018V316.917z
	 M161.889,60.452H50v111.889h111.889V60.452z M146.048,156.501H65.84V76.292h80.208V156.501z M386.337,60.452H274.111v111.889
	h112.226V60.452z M370.161,156.501h-80.209V76.292h80.209V156.501z M353.982,140.661h-47.852V92.804h47.852V140.661z
	 M129.872,140.661H82.018V92.804h47.854V140.661z M190.65,268.726c-2.832,10.227-4.44,20.953-4.656,32.016h-7.931v-32.016H190.65z
	 M146.048,252.884h15.841v15.842h-15.841V252.884z M225.922,140.661h16.175v16.178h-16.175V140.661z M242.097,140.661h15.838V60.79
	h-47.853v15.84h-32.019v16.174h32.019v15.84h32.015V140.661z M225.922,92.804V76.63h16.175v16.174H225.922z M210.082,188.854h-16.18
	v-16.178h16.18V188.854z M210.082,140.661h-16.18v-15.838h-15.839v-16.18h32.019V140.661z M194.241,252.884h-32.353v-16.176h-15.841
	V220.87h15.841v-16.176h-15.841v-15.84h47.854v15.84h-15.839v16.176h15.839v-16.176h32.02v-15.84h16.175v7.695
	c-15.239,10.533-28.123,24.238-37.688,40.158h-10.167V252.884z M225.922,396.862v0.266h-47.858v-80.211h8.611
	c1.167,11.15,3.759,21.883,7.58,32.018h-0.353v32.016h17.927C216.09,386.632,220.806,391.952,225.922,396.862z M193.902,140.661
	v32.016h-15.839v-32.016H193.902z M146.048,204.694v16.176h-16.176v-16.176H146.048z M129.872,188.854v15.84H97.854v16.176H82.018
	v-16.176H50v-15.84H129.872z M242.097,172.677v-15.838h15.838v15.838H242.097z M210.082,156.839h15.84v15.838h-15.84V156.839z
	 M97.854,236.708V220.87h16.181v15.838h15.838v32.018h-15.838v-15.842H82.018v15.842H50v-15.842h15.84v-16.176H97.854z"/>
</svg>
