<?xml version="1.0" encoding="utf-8"?>

<!-- License Agreement at http://iconmonstr.com/license/ -->

<!DOCTYPE svg PUBLIC "-//W3C//DTD SVG 1.1//EN" "http://www.w3.org/Graphics/SVG/1.1/DTD/svg11.dtd">
<svg version="1.1" xmlns="http://www.w3.org/2000/svg" xmlns:xlink="http://www.w3.org/1999/xlink" x="0px" y="0px"
	 width="512px" height="512px" viewBox="0 0 512 512" style="enable-background:new 0 0 512 512;" xml:space="preserve">
<path id="archive-6-icon" d="M323.474,115l6.41,22.69H182.275l6.379-22.69H323.474z M168.163,90h175.776l40.06,140.232h41.512
	L373.553,50H138.571L86.489,230.232h41.803L168.163,90z M169.979,181.42h172.258l-7.627-27H177.57L169.979,181.42z M156.254,230.232
	h199.773l-8.758-31H164.971L156.254,230.232z M415.299,300.232L397.438,422H114.562l-17.86-121.768H415.299z M461.594,260.232
	H50.406L80,462h352L461.594,260.232z M313.457,348.5c0-9.665-7.835-17.5-17.499-17.5h-79.917c-9.664,0-17.5,7.835-17.5,17.5
	c0,9.666,7.836,17.5,17.5,17.5h79.917C305.622,366,313.457,358.166,313.457,348.5z"/>
</svg>
