<?xml version="1.0" encoding="utf-8"?>

<!-- License Agreement at http://iconmonstr.com/license/ -->

<!DOCTYPE svg PUBLIC "-//W3C//DTD SVG 1.1//EN" "http://www.w3.org/Graphics/SVG/1.1/DTD/svg11.dtd">
<svg version="1.1" xmlns="http://www.w3.org/2000/svg" xmlns:xlink="http://www.w3.org/1999/xlink" x="0px" y="0px"
	 width="512px" height="512px" viewBox="0 0 512 512" enable-background="new 0 0 512 512" xml:space="preserve">
<path id="coffee-6-icon" d="M303.547,368.158h38.931v19.967h-58.896v-64.108h19.966V368.158z M387.628,370.599
	c0,50.479-40.921,91.401-91.401,91.401c-50.479,0-91.401-40.922-91.401-91.401c0-50.48,40.922-91.402,91.401-91.402
	C346.707,279.196,387.628,320.118,387.628,370.599z M360.636,370.599c0-35.516-28.894-64.41-64.409-64.41
	c-35.518,0-64.411,28.895-64.411,64.41s28.894,64.409,64.411,64.409C331.742,435.008,360.636,406.114,360.636,370.599z
	 M378.657,288.415c7.211,7.232,13.35,15.249,18.349,23.853c19.144-30.036,31.048-63.864,34.012-96.508h-71.4
	c-0.658,9.5-1.455,18.84-2.379,28.043h40.152C393.093,259.168,386.729,274.24,378.657,288.415z M197.295,432h-33.923
	c-29.272-71.095-45.196-136.111-50.875-222.84H301.93c-1.056,15.796-2.48,30.78-4.218,45.054c10.186,0.127,20.164,1.546,29.74,4.195
	c2.973-24.359,5.041-50.632,6.015-79.249H80.982c4.42,129.94,30.195,207.971,62.494,282.84h80.658
	C213.479,453.56,204.411,443.419,197.295,432z M222.609,164.953c77.81-70.13-16.099-66.428,1.912-114.953
	C162.407,112.687,247.665,114.093,222.609,164.953z M176.945,164.974c51.797-46.405-10.915-50.954,1.427-83.74
	C134.978,126.987,193.989,128.182,176.945,164.974z"/>
</svg>
