<?xml version="1.0" encoding="utf-8"?>

<!-- The icon can be used freely in both personal and commercial projects with no attribution required, but always appreciated. 
You may NOT sub-license, resell, rent, redistribute or otherwise transfer the icon without express written permission from iconmonstr.com -->

<!DOCTYPE svg PUBLIC "-//W3C//DTD SVG 1.1//EN" "http://www.w3.org/Graphics/SVG/1.1/DTD/svg11.dtd">
<svg version="1.1" xmlns="http://www.w3.org/2000/svg" xmlns:xlink="http://www.w3.org/1999/xlink" x="0px" y="0px"
	 width="512px" height="512px" viewBox="0 0 512 512" enable-background="new 0 0 512 512" xml:space="preserve">
<path id="save-7-icon" d="M315.469,243.417h50.166L255.999,353.243L146.365,243.417h50.164V50.265h118.939V243.417z M345.469,85.095
	v46.314c42.567,29.113,69.461,77.27,69.461,131.396c0,42.453-16.531,82.363-46.549,112.381S298.452,421.735,256,421.735
	c-42.451,0-82.362-16.531-112.38-46.549c-30.019-30.018-46.55-69.928-46.55-112.381c0-54,26.794-102.215,69.459-131.395V85.095
	C101.604,117.849,57.07,185.122,57.07,262.806c0,109.867,89.064,198.93,198.93,198.93c109.867,0,198.93-89.062,198.93-198.93
	C454.93,185.12,410.396,117.847,345.469,85.095z"/>
</svg>
