<?xml version="1.0" encoding="utf-8"?>

<!-- The icon can be used freely in both personal and commercial projects with no attribution required, but always appreciated. 
You may NOT sub-license, resell, rent, redistribute or otherwise transfer the icon without express written permission from iconmonstr.com -->

<!DOCTYPE svg PUBLIC "-//W3C//DTD SVG 1.1//EN" "http://www.w3.org/Graphics/SVG/1.1/DTD/svg11.dtd">
<svg version="1.1" xmlns="http://www.w3.org/2000/svg" xmlns:xlink="http://www.w3.org/1999/xlink" x="0px" y="0px"
	 width="512px" height="512px" viewBox="0 0 512 512" enable-background="new 0 0 512 512" xml:space="preserve">
<path id="network-2-icon" d="M256,50.001c-113.821,0-206,92.318-206,205.998c0,113.826,92.323,206,206,206
	c113.586,0,206-92.078,206-206C462,142.601,370.104,50.001,256,50.001z M409.81,193.429c-17.053-9.6-35.168-17.088-54.026-22.322
	c-1.792-16.412-17.176-30.104-34.978-29.969c-9.372-17.285-20.886-33.518-34.414-48.357
	C342.584,103.157,388.808,141.79,409.81,193.429z M323.562,312.081c-1.243,0.059-2.466,0.195-3.671,0.391
	c-28.455-46.627-73.183-84.703-128.135-104.004c-0.149-1.184-0.359-2.346-0.641-3.479c32.859-16.092,68.577-23.648,104.381-22.742
	c5.035,10.078,15.354,17.771,27.493,19.25c0.032,0.004,0.062,0.006,0.099,0.01C332.278,237.116,332.701,275.321,323.562,312.081z
	 M255.071,90.013c18.525,16.59,34.292,36.193,46.529,58.033c-4.255,3.629-7.328,8.498-8.657,14.166
	c-40.535-0.494-78.879,8.678-113.042,25.84c-14.032-10.545-34.171-6.945-43.672,7.969c-12.47-1.301-23.571-1.574-34.611-1.193
	C125.843,133.669,185.329,90.396,255.071,90.013z M95.054,215.187c11.949-0.803,23.767-0.723,36.647,0.498
	c0.142,1.266,0.364,2.508,0.658,3.721c-15.625,13.139-29.708,28.141-42.123,45.453C89.353,248.032,90.976,231.345,95.054,215.187z
	 M94.642,295.126c12.857-22.27,29.419-42.139,48.831-58.775c13.986,10.623,34.376,7.201,43.938-8.084
	c47.847,17.492,88.139,50.783,114.558,93.52c-12.647,12.801-12.493,32.973,0.307,44.49c-11.479,20.781-26.144,39.562-43.333,55.686
	C179.499,423.31,112.469,369.036,94.642,295.126z M290.188,418.474c12.035-13.824,22.377-28.787,30.918-44.635
	c1.729,0.064,2.967,0.014,4.453-0.141c2.964,9.633,5.293,19.545,6.951,29.676C319.34,410.218,305.138,415.351,290.188,418.474z
	 M350.885,392.253c-1.782-9.1-4.083-18.055-6.868-26.838c14.8-13.389,14.197-36.262-1.187-47.588
	c9.592-38.268,10.078-80.031-0.041-120.291c3.065-1.832,5.729-4.203,7.838-7.014c24.647,6.924,47.591,17.947,68.056,32.281
	C431.788,287.499,405.701,354.028,350.885,392.253z"/>
</svg>
