<?xml version="1.0" encoding="utf-8"?>

<!-- License Agreement at http://iconmonstr.com/license/ -->

<!DOCTYPE svg PUBLIC "-//W3C//DTD SVG 1.1//EN" "http://www.w3.org/Graphics/SVG/1.1/DTD/svg11.dtd">
<svg version="1.1" xmlns="http://www.w3.org/2000/svg" xmlns:xlink="http://www.w3.org/1999/xlink" x="0px" y="0px"
	 width="512px" height="512px" viewBox="0 0 512 512" enable-background="new 0 0 512 512" xml:space="preserve">
<path id="barcode-7-icon" d="M298.141,373.114c16.562,0,32.075-4.564,45.357-12.494l53.645,53.645l29.245-29.248l-53.246-53.244
	c8.709-13.727,13.763-29.992,13.763-47.422c0-48.943-39.819-88.76-88.764-88.76c-48.943,0-88.761,39.816-88.761,88.76
	S249.197,373.114,298.141,373.114z M298.141,228.679c30.699,0,55.675,24.975,55.675,55.672c0,30.699-24.976,55.672-55.675,55.672
	c-30.696,0-55.671-24.973-55.671-55.672C242.47,253.653,267.444,228.679,298.141,228.679z M317.672,167.206V97.739h20.171v74.686
	C331.357,170.118,324.616,168.36,317.672,167.206z M243.888,178.726l-0.001-80.986h41.123v68.582
	C270.338,167.942,256.462,172.241,243.888,178.726z M370.954,190.597V97.735h34.408V233.31
	C397.341,216.528,385.492,201.913,370.954,190.597z M462,318.794h-25.228V97.735L462,97.739V318.794z M117.162,97.739h41.126
	v221.055h-41.126V97.739z M190.76,233.655V97.739h20.172v106.09C202.786,212.644,195.958,222.69,190.76,233.655z M50,97.739h34.404
	v221.055H50V97.739z"/>
</svg>
