<?xml version="1.0" encoding="utf-8"?>

<!-- License Agreement at http://iconmonstr.com/license/ -->

<!DOCTYPE svg PUBLIC "-//W3C//DTD SVG 1.1//EN" "http://www.w3.org/Graphics/SVG/1.1/DTD/svg11.dtd">
<svg version="1.1" xmlns="http://www.w3.org/2000/svg" xmlns:xlink="http://www.w3.org/1999/xlink" x="0px" y="0px"
	 width="512px" height="512px" viewBox="0 0 512 512" enable-background="new 0 0 512 512" xml:space="preserve">
<path id="barcode-6-icon" d="M364.094,191.775v-50.928h33.672v49.241C386.416,188.858,375.129,189.425,364.094,191.775z
	 M311.949,219.9v-79.049h19.74v63.726C324.512,208.902,317.889,214.055,311.949,219.9z M428.504,198.238v-57.391l24.689,0.004
	v72.521C445.629,207.161,437.328,202.09,428.504,198.238z M239.742,140.852h40.244v216.331l-40.242-0.002L239.742,140.852z
	 M50,140.852h33.668v216.329H50V140.852z M187.75,140.852h19.74v216.331l-19.74-0.002V140.852z M115.727,140.852h40.246v216.329
	h-40.246V140.852z M386.156,219.467c-41.887,0-75.842,33.956-75.842,75.843s33.955,75.843,75.842,75.843S462,337.196,462,295.31
	S428.043,219.467,386.156,219.467z M414.92,340.427l-28.395-28.393l-28.395,28.396l-15.25-15.261l28.387-28.393l-28.391-28.389
	l15.26-15.252l28.387,28.384l28.383-28.387l15.264,15.254l-28.387,28.389l28.391,28.387L414.92,340.427z"/>
</svg>
