<?xml version="1.0" encoding="utf-8"?>

<!-- License Agreement at http://iconmonstr.com/license/ -->

<!DOCTYPE svg PUBLIC "-//W3C//DTD SVG 1.1//EN" "http://www.w3.org/Graphics/SVG/1.1/DTD/svg11.dtd">
<svg version="1.1" xmlns="http://www.w3.org/2000/svg" xmlns:xlink="http://www.w3.org/1999/xlink" x="0px" y="0px"
	 width="512px" height="512px" viewBox="0 0 512 512" enable-background="new 0 0 512 512" xml:space="preserve">
<path id="qr-code-2-icon" fill-rule="evenodd" clip-rule="evenodd" d="M121.136,121v89.729h89.729V121H121.136z M198.162,198.027
	h-64.323v-64.325h64.323V198.027z M300.863,121v89.729h90.001V121H300.863z M377.892,198.027h-64.324v-64.325h64.324V198.027z
	 M146.812,146.945h38.378v38.378h-38.378V146.945z M326.542,146.945h38.375v38.378h-38.375V146.945z M326.542,275.322v25.677
	h-12.704v-25.677H326.542z M390.864,275.322v12.704h-12.973v-12.704H390.864z M121.136,300.999V391h89.729v-90.001H121.136z
	 M198.162,378.025h-64.323v-64.323h64.323V378.025z M146.812,326.674h38.378v38.379h-38.378V326.674z M352.216,339.377v12.974
	h-12.973v-12.974H352.216z M249.514,211v-12.702h12.703v-12.974h12.973v-25.675h-25.676v25.675h-12.975V211h-12.701v-25.676h12.701
	v-12.703h-12.701v-12.973h25.676v-12.703h-25.676v-12.973h25.676v-12.702h38.377v64.053h-12.701v12.974h12.701V211h-12.701v-12.702
	h-12.973V211H249.514v12.973h-12.975v12.703h-12.701v12.974h12.701v-12.974h25.678v-12.703h12.973v12.703h12.701v-12.703h12.973
	v12.703h12.704v-12.703h12.975v12.703h-12.975v12.974h12.975v12.701h-12.704v12.973h-25.947v25.677h12.973v12.703h-12.973v-12.703
	h-12.701v12.703h-12.973v12.972h12.973v12.703h12.433v-12.703h13.241v12.703h25.679v-12.703h-12.975v-12.972h12.975v-12.703h12.701
	v-12.973h12.973v12.973h-12.973v12.703h12.973v-12.703h25.676v38.378h-12.975v-12.703h-25.674v12.703h-12.701v25.676h-12.975v12.973
	h-25.677V391h-12.701v-12.975h-12.973v-12.973h12.973v-12.702h-38.65v25.675h25.678V391h-38.379v-64.326h12.701v-12.972h-12.701
	v-25.676h12.701v25.676h12.975v-12.703h25.676v-25.677h-25.676V262.35h-12.703v12.973h-25.945v12.704h-12.703v-12.704h12.703V262.35
	h-12.703v-12.701h12.703v-12.974h-12.703v12.974h-12.973v-12.974h-25.677v12.974h12.975v12.701h12.702v25.677h-12.702v-12.704
	h-25.676v12.704h-25.676v-12.704h12.703V262.35h25.674v-12.701h-12.701v-12.974h-25.676v-12.703h64.054v12.703h12.973v-12.703
	h38.377V211H249.514z M262.217,249.648v12.701h12.973v-12.701H262.217z M287.891,249.648v12.701h12.973v-12.701H287.891z
	 M287.891,352.351v12.702h12.973v-12.702H287.891z M262.217,133.973v12.973h12.973v-12.973H262.217z M364.917,352.351v25.406h12.975
	V391h-12.975v-13.243h-25.674V391h-12.701v-25.947h25.674v-12.702H364.917z M390.864,236.675v12.974h-12.973v12.701h-12.975v12.973
	h-25.674v-51.35h12.973v12.703h12.701v-12.703h12.975v12.703h-12.975v12.974h12.975v-12.974H390.864z M392,90
	c16.542,0,30,13.458,30,30v272c0,16.542-13.458,30-30,30H120c-16.542,0-30-13.458-30-30V120c0-16.542,13.458-30,30-30H392 M392,50
	H120c-38.66,0-70,31.34-70,70v272c0,38.66,31.34,70,70,70h272c38.66,0,70-31.34,70-70V120C462,81.34,430.66,50,392,50z"/>
</svg>
