<?xml version="1.0" encoding="utf-8"?>

<!-- License Agreement at http://iconmonstr.com/license/ -->

<!DOCTYPE svg PUBLIC "-//W3C//DTD SVG 1.1//EN" "http://www.w3.org/Graphics/SVG/1.1/DTD/svg11.dtd">
<svg version="1.1" xmlns="http://www.w3.org/2000/svg" xmlns:xlink="http://www.w3.org/1999/xlink" x="0px" y="0px"
	 width="512px" height="512px" viewBox="0 0 512 512" style="enable-background:new 0 0 512 512;" xml:space="preserve">
<path id="sort-12-icon" d="M364.178,206.525L258.5,347.393L152.822,206.525H364.178z M373.38,138.62
	c64.868,64.868,64.883,169.879,0,234.76c-64.868,64.87-169.88,64.882-234.76,0c-64.87-64.868-64.882-169.878,0-234.76
	C203.494,73.748,308.498,73.74,373.38,138.62z M256,50C142.229,50,50,142.229,50,256c0,113.771,92.229,206,206,206
	s206-92.229,206-206C462,142.229,369.771,50,256,50z"/>
</svg>
