<?xml version="1.0" encoding="utf-8"?>

<!-- License Agreement at http://iconmonstr.com/license/ -->

<!DOCTYPE svg PUBLIC "-//W3C//DTD SVG 1.1//EN" "http://www.w3.org/Graphics/SVG/1.1/DTD/svg11.dtd">
<svg version="1.1" xmlns="http://www.w3.org/2000/svg" xmlns:xlink="http://www.w3.org/1999/xlink" x="0px" y="0px"
	 width="512px" height="512px" viewBox="0 0 512 512" enable-background="new 0 0 512 512" xml:space="preserve">
<path id="bell-12-icon" d="M212.021,412.333h99.333c0,27.431-22.236,49.667-49.667,49.667
	C234.258,462,212.021,439.764,212.021,412.333z M132.954,299.654c23.275-57.644,14.95-148.177,73.744-181.924
	c11.188-6.422,18.095-18.35,18.072-31.25c0-0.021,0-0.043,0-0.064c0-20.111,16.304-36.416,36.417-36.416
	c20.111,0,36.417,16.305,36.417,36.416c0,0.021,0,0.043,0,0.064c-0.022,12.69,6.699,24.464,17.579,30.944l-24.996,24.996
	c-8.149-3.748-17.728-5.821-29-5.821c-33.66,0-52.009,18.41-62.316,44.105c-8.033,20.029-12.112,44.717-17.004,70.036
	L132.954,299.654z M246.412,86.417c0,8.147,6.629,14.774,14.775,14.774c8.147,0,14.775-6.627,14.775-14.774
	s-6.628-14.774-14.775-14.774C253.041,71.643,246.412,78.27,246.412,86.417z M434.888,346.149v36.101H143.698l-41.131,41.131
	l-25.455-25.455l301.5-301.5l25.455,25.455l-47.434,47.434C381.658,233.694,371.38,325.671,434.888,346.149z M376.84,347.25
	c-33.373-41.211-34.582-103.747-47.855-150.286L178.698,347.25H376.84z"/>
</svg>
