<?xml version="1.0" encoding="utf-8"?>

<!-- License Agreement at http://iconmonstr.com/license/ -->

<!DOCTYPE svg PUBLIC "-//W3C//DTD SVG 1.1//EN" "http://www.w3.org/Graphics/SVG/1.1/DTD/svg11.dtd">
<svg version="1.1" xmlns="http://www.w3.org/2000/svg" xmlns:xlink="http://www.w3.org/1999/xlink" x="0px" y="0px"
	 width="512px" height="512px" viewBox="0 0 512 512" enable-background="new 0 0 512 512" xml:space="preserve">
<path id="barcode-5-icon" d="M386.156,219.467c-41.887,0-75.844,33.953-75.844,75.843c0,41.888,33.957,75.843,75.844,75.843
	c41.889,0,75.844-33.955,75.844-75.843C462,253.42,428.045,219.467,386.156,219.467z M373.252,336.162l-35.833-35.843l15.259-15.26
	l20.574,20.58l47.502-47.501l15.265,15.253L373.252,336.162z M364.093,191.775v-50.928h33.673v49.241
	C386.415,188.858,375.128,189.425,364.093,191.775z M311.949,219.9v-79.049h19.739v63.726
	C324.512,208.902,317.889,214.055,311.949,219.9z M428.504,198.238v-57.391l24.688,0.004v72.521
	C445.628,207.161,437.327,202.09,428.504,198.238z M239.742,140.852h40.244v216.331l-40.242-0.002L239.742,140.852z M50,140.852
	h33.668v216.329H50V140.852z M187.75,140.852h19.74v216.331l-19.74-0.002V140.852z M115.726,140.852h40.247v216.329h-40.247V140.852
	z"/>
</svg>
