<?xml version="1.0" encoding="utf-8"?>


<!-- The icon can be used freely in both personal and commercial projects with no attribution required, but always appreciated. 
You may NOT sub-license, resell, rent, redistribute or otherwise transfer the icon without express written permission from iconmonstr.com -->


<!DOCTYPE svg PUBLIC "-//W3C//DTD SVG 1.1//EN" "http://www.w3.org/Graphics/SVG/1.1/DTD/svg11.dtd">

<svg version="1.1" xmlns="http://www.w3.org/2000/svg" xmlns:xlink="http://www.w3.org/1999/xlink" x="0px" y="0px"

	 width="512px" height="512px" viewBox="0 0 512 512" enable-background="new 0 0 512 512" xml:space="preserve">

<path id="magnifier-3-icon" d="M208.464,363.98c-86.564,0-156.989-70.426-156.989-156.99C51.475,120.426,121.899,50,208.464,50

	c86.565,0,156.991,70.426,156.991,156.991C365.455,293.555,295.029,363.98,208.464,363.98z M208.464,103.601

	c-57.01,0-103.389,46.381-103.389,103.39s46.379,103.389,103.389,103.389c57.009,0,103.391-46.38,103.391-103.389

	S265.473,103.601,208.464,103.601z M367.482,317.227c-14.031,20.178-31.797,37.567-52.291,51.166L408.798,462l51.728-51.729

	L367.482,317.227z"/>

</svg>

