<?xml version="1.0" encoding="utf-8"?>

<!-- License Agreement at http://iconmonstr.com/license/ -->

<!DOCTYPE svg PUBLIC "-//W3C//DTD SVG 1.1//EN" "http://www.w3.org/Graphics/SVG/1.1/DTD/svg11.dtd">
<svg version="1.1" xmlns="http://www.w3.org/2000/svg" xmlns:xlink="http://www.w3.org/1999/xlink" x="0px" y="0px"
	 width="512px" height="512px" viewBox="0 0 512 512" enable-background="new 0 0 512 512" xml:space="preserve">
<path id="lifebuoy-icon" d="M256,50C142.299,50,50,142.217,50,256c0,113.736,92.251,206,206,206c113.689,0,206-92.207,206-206
	C462,142.306,369.787,50,256,50z M330.953,330.953c-41.387,41.388-108.452,41.458-149.906,0
	c-41.395-41.395-41.441-108.465,0-149.906c41.416-41.416,108.48-41.428,149.906,0C372.344,222.435,372.4,289.511,330.953,330.953z
	 M336.258,93.675l-24.811,43.557c-34.916-16.342-75.943-16.355-110.895,0.001l-24.811-43.558
	C225.17,69.181,285.161,68.353,336.258,93.675z M93.555,175.988l43.562,24.814c-16.287,34.993-16.457,76.8,1.078,112.647
	l-43.523,24.791C69.202,288.408,68.058,227.639,93.555,175.988z M177.02,418.949l24.828-43.587
	c34.195,15.547,74.063,15.566,108.305-0.001l24.828,43.588C286.028,442.725,227.216,443.329,177.02,418.949z M373.806,313.45
	c17.503-35.786,17.394-77.589,1.077-112.647l43.562-24.814c24.663,49.961,25.206,110.75-1.117,162.253L373.806,313.45z"/>
</svg>
