<?xml version="1.0" encoding="utf-8"?>

<!-- The icon can be used freely in both personal and commercial projects with no attribution required, but always appreciated. 
You may NOT sub-license, resell, rent, redistribute or otherwise transfer the icon without express written permission from iconmonstr.com -->

<!DOCTYPE svg PUBLIC "-//W3C//DTD SVG 1.1//EN" "http://www.w3.org/Graphics/SVG/1.1/DTD/svg11.dtd">
<svg version="1.1" xmlns="http://www.w3.org/2000/svg" xmlns:xlink="http://www.w3.org/1999/xlink" x="0px" y="0px"
	 width="512px" height="512px" viewBox="0 0 512 512" enable-background="new 0 0 512 512" xml:space="preserve">
<path id="trash-can-14-icon" d="M406.783,86.733C385.476,65.424,326.044,50.077,256,50.002
	c-70.044,0.075-129.476,15.422-150.783,36.731c-9.45,9.451-6.858,20.293-2.235,48.122c13.195,73.944,41.827,236.149,52.094,293.35
	c18.094,22.529,59.51,33.793,100.925,33.793s82.831-11.264,100.925-33.793c10.267-57.2,38.898-219.405,52.094-293.35
	C413.642,107.026,416.233,96.185,406.783,86.733z M324.466,410.953c-16.512,11.789-46.741,16.045-68.466,16.045
	c-21.401,0-51.881-4.203-68.466-16.045c-4.263-23.667-34.236-195.958-44.438-253.937c30.688,9.917,70.001,15.906,112.903,16.001
	c42.902-0.095,82.215-6.084,112.903-16.001C358.702,214.995,328.729,387.286,324.466,410.953z M256,138.353
	c-66.475-0.168-120.145-12.911-120.145-28.609c0-15.697,53.67-28.44,120.145-28.608c66.475,0.168,120.145,12.911,120.145,28.608
	C376.145,125.441,322.475,138.185,256,138.353z"/>
</svg>
