<?xml version="1.0" encoding="utf-8"?>

<!-- The icon can be used freely in both personal and commercial projects with no attribution required, but always appreciated. 
You may NOT sub-license, resell, rent, redistribute or otherwise transfer the icon without express written permission from iconmonstr.com -->

<!DOCTYPE svg PUBLIC "-//W3C//DTD SVG 1.1//EN" "http://www.w3.org/Graphics/SVG/1.1/DTD/svg11.dtd">
<svg version="1.1" xmlns="http://www.w3.org/2000/svg" xmlns:xlink="http://www.w3.org/1999/xlink" x="0px" y="0px"
	 width="512px" height="512px" viewBox="0 0 512 512" enable-background="new 0 0 512 512" xml:space="preserve">
<path id="book-24-icon" d="M294.249,183.671H152.776v19.572h141.473V183.671z M294.249,218.901H152.776v19.573h141.473V218.901z
	 M294.249,254.133H152.776v19.573h141.473V254.133z M223.513,289.364h-70.736v19.572h70.736V289.364z M294.249,113.439H152.776
	v19.573h141.473V113.439z M294.249,148.671H152.776v19.573h141.473V148.671z M381.318,339.39c1.461,6.131-6.674,9.973-9.375,3.455
	c-3.289-7.939-8.562-41.668-13.176-75.625c-2.463-18.16-26.768-15.93-26.708,2.838c0.091,29.207,0.077,53.525,0.008,96.799
	c-0.056,36.893,16.936,37.623,29.321,79.016c2.122,7.092,3.938,14.842,5.435,22.402l61.559-21.479
	c-21.455-41.965-11.122-75.113-8.974-102.258c2.932-37.094-6.93-40.691-52.683-85.262
	C369.483,278.853,375.198,313.714,381.318,339.39z M312.07,367.243H118.879V83.394h208.48V240.29
	c10.788-7.121,24.6-7.369,35.261-0.959V71.935c0-15.58-12.629-28.209-28.209-28.209H111.826c-15.578,0-28.208,12.629-28.208,28.209
	v306.77c0,15.578,12.63,28.209,28.208,28.209h208.727C315.792,397.183,312.101,385.345,312.07,367.243z M223.119,394.79
	c-4.139,0-7.493-3.354-7.493-7.492c0-4.137,3.354-7.492,7.493-7.492s7.493,3.355,7.493,7.492
	C230.612,391.437,227.258,394.79,223.119,394.79z"/>
</svg>
