<?xml version="1.0" encoding="utf-8"?>

<!-- License Agreement at http://iconmonstr.com/license/ -->

<!DOCTYPE svg PUBLIC "-//W3C//DTD SVG 1.1//EN" "http://www.w3.org/Graphics/SVG/1.1/DTD/svg11.dtd">
<svg version="1.1" xmlns="http://www.w3.org/2000/svg" xmlns:xlink="http://www.w3.org/1999/xlink" x="0px" y="0px"
	 width="512px" height="512px" viewBox="0 0 512 512" enable-background="new 0 0 512 512" xml:space="preserve">
<path id="thumb-2-icon" d="M296.938,81.385c21.562,6.514,16.438,77.228-3.165,135.719
	c19.624,14.197,65.684,32.893,118.087,26.352c-1.198,17.676-2.024,26.15-15.138,29.868l-19.582,5.205
	c-13.565,4.104-7.458,24.715,6.229,20.572l20.255-5.973c-3.438,22.57-3.729,26.475-18.992,31.1l-15.543,4.777
	c-13.713,4.148-7.312,24.682,6.231,20.57l19.089-6.25c-2.709,20.375-3.297,26.246-18.069,30.715l-15.225,5.191
	c-13.564,4.098-7.457,24.719,6.223,20.566l16.098-5.4c-4.989,35.074-42.508,39.755-77.63,35.666
	c-39.849-4.64-92.555-45.841-206.369-47.118c0-41.723,0-75.333,0-124.057c108.147-7.667,154.538-80.943,171.845-134.803
	C277.758,103.928,279.691,76.174,296.938,81.385z M292.866,50c-31.953,0-40.089,28.705-48.62,57.14
	c-34.33,114.416-123.33,120.082-175.604,124.14c0,53,0,96.333,0,180.666c154.941,0,173.496,41.89,233.723,48.671
	c55.948,6.301,94.666-7.996,108.984-61.887c9.975-37.541,24.664-119.871,32.01-189.047c-28.695,7.174-76.266,7.003-112.785-8.374
	C344.462,144.947,352.07,50,292.866,50z"/>
</svg>
