<?xml version="1.0" encoding="utf-8"?>

<!-- The icon can be used freely in both personal and commercial projects with no attribution required, but always appreciated. 
You may NOT sub-license, resell, rent, redistribute or otherwise transfer the icon without express written permission from iconmonstr.com -->

<!DOCTYPE svg PUBLIC "-//W3C//DTD SVG 1.1//EN" "http://www.w3.org/Graphics/SVG/1.1/DTD/svg11.dtd">
<svg version="1.1" xmlns="http://www.w3.org/2000/svg" xmlns:xlink="http://www.w3.org/1999/xlink" x="0px" y="0px"
	 width="512px" height="512px" viewBox="0 0 512 512" enable-background="new 0 0 512 512" xml:space="preserve">
<path id="book-13-icon" d="M124,122.528c-23.611,0-23.611-34.528,0-34.528c16.904,0,324,0,324,0V50H114c-27.613,0-50,22.386-50,50
	v312c0,27.614,22.387,50,50,50h334V122.528C443.018,122.528,143.098,122.528,124,122.528z M408,422H155.527V163.098H408V422z
	 M292.898,209.86c9.672-8.233,24.012-8.055,32.031,0.396c8.019,8.456,6.681,21.984-2.989,30.222
	c-9.674,8.233-24.012,8.057-32.033-0.402C281.889,231.623,283.227,218.095,292.898,209.86z M242.371,360.784
	c3.528-20.486,23.765-64.342,26.652-72.636c2.886-8.292-2.647-10.567-8.576-7.193c-3.422,1.976-8.505,5.928-12.868,9.773
	c-1.21-2.437-2.912-5.222-4.19-7.889c7.121-7.136,19.025-16.702,33.116-20.169c16.836-4.156,44.977,2.487,32.882,34.668
	c-8.637,22.938-14.746,38.766-18.594,50.553c-3.847,11.79,0.724,14.265,7.457,9.669c5.26-3.591,10.865-8.478,14.974-12.266
	c1.9,3.087,2.509,4.073,4.387,7.622c-7.131,7.311-25.784,24.417-39.858,29.446C256.426,389.86,238.845,381.266,242.371,360.784z"/>
</svg>
