<?xml version="1.0" encoding="utf-8"?>

<!-- License Agreement at http://iconmonstr.com/license/ -->

<!DOCTYPE svg PUBLIC "-//W3C//DTD SVG 1.1//EN" "http://www.w3.org/Graphics/SVG/1.1/DTD/svg11.dtd">
<svg version="1.1" xmlns="http://www.w3.org/2000/svg" xmlns:xlink="http://www.w3.org/1999/xlink" x="0px" y="0px"
	 width="512px" height="512px" viewBox="0 0 512 512" style="enable-background:new 0 0 512 512;" xml:space="preserve">
<path id="archive-8-icon" d="M335.42,115l6.41,22.69H170.221L176.6,115H335.42z M157.925,181.42h196.258l-7.627-27H165.516
	L157.925,181.42z M130.116,181.42L156.109,90h199.776L382,181.42h41.385L385.498,50H126.517L88.541,181.42H130.116z
	 M287.414,294.625h-62.937c-7.247,0-13.125-5.876-13.125-13.125s5.878-13.125,13.125-13.125h62.937
	c7.248,0,13.125,5.876,13.125,13.125S294.662,294.625,287.414,294.625z M412.23,363.732L399.818,422H113.281l-12.952-58.268H412.23z
	 M461.648,323.732H50.46L81.196,462h351L461.648,323.732z M287.523,405.625h-62.937c-7.247,0-13.125-5.875-13.125-13.125
	c0-7.248,5.878-13.125,13.125-13.125h62.937c7.248,0,13.125,5.877,13.125,13.125C300.648,399.75,294.771,405.625,287.523,405.625z
	 M106.831,294.732l-7.983-42.5h314.198l-8,42.5h40.592l15.902-82.5H50.352l15.813,82.5H106.831z"/>
</svg>
